<svg width="166" height="889" viewBox="0 0 166 889" fill="none" xmlns="http://www.w3.org/2000/svg">
<circle cx="15" cy="612" r="15" fill="#44ADC2"/>
<circle cx="151" cy="348" r="15" fill="#44ADC2"/>
<circle cx="121" cy="15" r="15" fill="#44ADC2"/>
<path d="M124.796 17C124.796 21.1083 125.354 32.2267 126.128 36.4332C127.036 41.3717 128.932 49.4286 129.386 57.9497C130.13 71.9286 129.642 83.4401 129.491 87.8688C129.241 95.2409 128.31 98.4483 127.913 107.104C127.305 120.332 126.211 128.372 125.955 134.521C125.822 137.73 125.21 140.664 124.666 144.275C123.731 150.476 123.865 158.307 123.596 161.782C123.525 162.693 123.356 163.77 123.139 176.08C122.922 188.39 122.629 211.895 122.352 229.688C122.075 247.481 121.823 258.849 121.673 269.735C121.383 290.678 121.556 301.76 121.756 304.037C122.493 312.431 123.555 318.585 124.251 322.203C124.818 325.15 125.508 328.059 126.713 331.174C128.113 334.797 130.963 337.286 132.799 339.434C134.552 341.484 137.074 342.36 139.366 343.924C140.405 344.634 141.056 345.963 141.531 347.3C142.637 350.409 141.604 354.761 140.325 357.304C138.779 360.38 136.545 362.931 135.124 365.684C133.664 368.512 131.411 375.562 129.857 381.797C127.464 391.394 128.986 400.658 129.261 404.123C129.624 408.697 130.915 413.7 131.28 417.256C131.507 419.467 131.008 421.326 130.179 422.512C128.286 425.221 126.313 426.809 125.331 429.759C123.789 434.388 127.176 448.389 128.991 455.019C129.902 458.349 129.919 461.46 130.478 466.387C131.45 474.959 128.86 478.674 123.383 488.632C115.785 502.448 112.86 507.198 110.561 512.023C107.535 518.376 101.521 522.96 100.735 524.365C99.958 525.753 99.8945 533.11 99.621 543.648C99.3087 555.676 94.2874 567.77 92.4546 572.812C90.7139 577.602 90.0794 581.598 89.2483 585.005C88.4871 588.126 85.7308 590.542 83.575 592.285C76.8069 597.756 62.4127 600.077 58.2823 600.154C53.1222 600.251 43.1605 604.748 38.7014 605.652C34.6576 606.472 30.8106 607.093 23.3421 609.482C21.2043 610.165 18.4787 610.234 15.074 610.814C13.796 611.032 13.5295 611.837 13.3796 612.946C12.4885 619.54 13.3345 625.871 14.1907 629.434C14.9077 632.418 16.133 635.198 17.5104 637.695C19.1984 640.757 21.8217 645.906 23.1746 649.53C26.2013 657.639 23.8491 677.311 24.7594 681.967C25.5172 685.843 29.2901 687.674 32.0107 691.047C33.8724 693.355 38.5811 705.664 42.0784 713.279C43.0564 715.409 44.1755 716.961 44.6616 718.215C47.6048 725.809 45.4446 741.478 47.3374 744.813C49.8459 749.234 52.7606 751.178 57.5393 757.47C60.1904 760.96 62.2387 763.849 63.7011 766.568C65.8314 770.528 73.2725 780.43 78.5723 788.951C79.2694 790.071 79.015 791.693 79.3598 792.417C79.7046 793.14 80.3942 793.14 80.7495 793.608C82.5673 796.004 82.8393 802.56 84.7514 807.78C87.4476 815.141 90.8432 818.646 93.4606 823.15C96.2121 827.885 97.4678 833.315 98.6903 837.102C99.5575 840.89 100.958 844.663 102.692 852.196C103.047 856.892 103.047 865.318 103.047 874" stroke="#44ADC2" stroke-width="8" stroke-linecap="round"/>
<circle cx="103" cy="874" r="15" fill="#44ADC2"/>
</svg>
