<svg width="125" height="892" viewBox="0 0 125 892" fill="none" xmlns="http://www.w3.org/2000/svg">
<circle cx="68.7256" cy="689" r="11" fill="#44ADC2"/>
<circle cx="108.726" cy="387" r="11" fill="#44ADC2"/>
<circle cx="86.7256" cy="162" r="11" fill="#44ADC2"/>
<circle cx="113.726" cy="11" r="11" fill="#44ADC2"/>
<path d="M70.2088 888.034C70.2088 887.999 70.2088 880.772 70.2911 869.356C70.3396 862.623 71.2186 860.702 71.5836 858.668C72.0473 856.083 72.315 853.377 72.8234 851.401C73.4269 849.055 75.8296 847.097 78.621 842.426C80.2235 839.744 81.0696 837.327 82.6838 834.4C86.51 827.46 87.1313 825.12 89.5232 822.413C91.5066 820.168 92.912 816.477 95.5543 806.27C96.8557 801.242 96.284 798.662 95.0668 795.132C94.3157 792.954 94.3499 789.047 95.2497 785.56C95.4138 784.924 95.6441 784.499 95.5122 784.145C94.8684 782.421 92.2138 781.756 90.7082 780.134C88.8039 778.083 86.7317 776.348 84.5431 774.567C80.7567 771.486 78.6339 769.18 76.9123 767.165C74.7487 764.633 71.8945 761.039 70.8676 759.213C69.881 757.459 69.5146 755.397 69.3508 748.708C69.3052 746.847 69.8282 744.036 69.7999 737.89C69.7597 729.16 69.741 723.513 69.8688 721.432C70.1273 717.223 69.9747 713.974 70.103 712.943C71.0359 705.45 70.0612 692.191 69.4175 690.175C69.1584 689.364 64.528 689.736 58.8989 689.327C55.2237 689.059 53.347 680.959 50.9905 677.175C49.8655 675.368 49.1663 672.896 47.6525 669.968C46.0977 666.962 43.3274 662.649 41.3956 657.734C40.5181 655.502 39.2021 653.749 36.4682 652.404C34.4273 651.399 32.5387 650.892 31.1004 649.657C30.3239 648.99 30.5907 647.073 30.3705 645.275C30.0722 642.84 26.1704 642.52 22.1853 641.184C19.3612 640.238 16.3225 640.073 13.1607 638.745C11.6666 638.117 10.7829 637.17 10.2304 636.334C8.72319 634.051 7.89593 627.146 6.87388 622.812C5.71655 617.905 3.91625 612.255 3.16868 608.413C2.70606 606.035 3.27911 604.137 3.81625 603.387C5.50373 601.033 9.86756 602.147 10.4256 601.034C11.4046 599.08 10.6606 596.958 10.8853 595.934C11.364 593.752 16.0432 590.925 21.7424 587.456C24.4965 585.78 26.7862 585.212 28.16 583.832C30.4262 581.555 29.3161 576.364 29.954 573.618C30.4702 571.396 32.9054 568.016 35.8955 564.353C37.6769 562.171 40.4339 558.865 42.979 554.233C44.2664 551.89 45.4104 549.706 48.2426 543.875C49.6051 541.07 52.6026 539.273 55.2916 537.495C57.0991 536.3 59.0287 533.297 60.8045 530.925C62.1421 529.139 64.0521 523.639 65.0756 519.885C65.4394 518.551 65.2864 516.126 64.9987 512.381C64.2861 503.104 65.7081 493 68.7812 491C79.0321 484.329 69.8153 474.701 68.7812 474C66.5949 472.518 61.3489 469.441 60.0443 468.04C59.3921 467.34 58.6012 466.442 58.2219 464.741C56.9303 458.949 61.9553 456.867 63.369 454.959C64.6289 453.236 66.0419 451.22 67.1699 449.336C67.6872 448.417 68.0922 447.576 68.7812 446.397" stroke="#44ADC2" stroke-width="6" stroke-linecap="round"/>
<path d="M69.0898 446.587C69.0927 446.383 72.0278 441.834 73.8893 439.038C74.5896 437.987 74.759 437.154 75.1581 436.502C75.6085 435.766 76.3351 434.151 77.2483 432.086C77.4363 431.661 77.5439 431.313 78.2329 429.649C78.9219 427.985 80.1778 425.011 80.8609 423.36C81.6394 421.477 82.91 418.836 84.7913 415.106C86.2187 412.276 87.2783 409.593 88.305 407.145C89.1485 405.134 89.8007 403.836 90.0414 402.404C90.4264 400.115 91.9677 398.208 92.9674 397.37C94.5066 396.08 96.6037 395.072 100.344 392.552C101.588 391.713 102.426 391.199 103.027 390.607C103.595 390.047 103.998 388.902 104.827 388.06C105.858 387.014 106.969 386.895 108.458 385.903C109.054 385.506 109.915 383.923 111.302 381.48C113.25 378.05 113.841 377.224 113.894 375.391C113.923 374.386 113.433 373.602 112.655 372.358C112.059 371.406 111.512 370.765 109.811 366.09C109.333 364.776 109.28 364.149 109.236 362.881C109.059 357.853 109.685 355.843 109.429 354.903C109.306 354.453 109.188 352.994 109.15 350.991C109.131 349.998 109.238 348.21 109.208 345.671C109.172 342.665 107.917 339.974 107.361 339.125C106.638 338.021 105.889 337.176 105.152 336.7C104.102 336.022 101.224 335.755 97.4166 335.397C96.0358 335.268 96.1606 332.265 96.022 330.338C96.2614 329.369 96.5043 328.524 96.7555 327.788C96.8529 327.455 96.8891 327.203 96.9264 326.486" stroke="#44ADC2" stroke-width="6" stroke-linecap="round"/>
<path d="M97.0898 326.587C97.0898 322.432 97.1684 317.776 97.2676 316.728C97.4736 314.553 96.7822 313.762 96.2159 313.03C95.5492 312.168 94.2393 311.453 92.4759 310.562C89.9158 309.268 88.8174 308.781 88.0454 308.18C86.8791 307.272 86.2052 306.029 85.656 304.574C85.3021 303.637 85.3779 302.162 85.3857 300.694C85.389 300.078 85.4093 299.725 83.6302 299.025C81.8512 298.326 78.2768 297.291 75.5261 296.584C72.7755 295.877 70.9567 295.529 68.9975 294.984C67.0383 294.438 64.9938 293.705 62.718 292.808C60.4423 291.912 57.9973 290.873 56.647 290.316C55.2967 289.759 55.1152 289.715 53.6811 288.98C49.5447 286.858 46.6435 285.236 46.1953 284.876C44.7451 283.71 44.0589 282.551 43.6526 281.281C42.584 277.941 43.6328 274.024 44.0321 272.574C44.5308 270.762 45.5782 268.16 45.9554 267.008C46.8202 264.367 47.4272 263.397 47.7312 262.028C48.5828 258.193 48.4972 256.284 49.3767 254.932C49.6383 254.53 51.2758 253.005 54.3535 250.157C57.659 247.098 60.1095 245.696 60.6745 245.194C61.6126 244.36 62.1101 243.69 62.6545 243.1C63.2323 242.474 63.9828 240.341 64.4732 238.538C65.2808 235.569 64.9409 233.018 64.8869 231.948C64.8043 230.31 64.3356 229.408 63.3291 228.179C61.6159 226.087 60.591 224.982 60.2271 223.328C59.6591 220.746 59.9728 219.661 59.8836 218.817C59.8555 218.55 59.8736 218.208 59.9818 217.957C60.6118 216.494 63.9767 214.843 65.7512 213.624C66.7836 212.915 67.466 212.569 68.2582 212.285C69.1117 211.979 70.3468 211.516 71.8441 211.234C73.1984 210.979 74.6781 210.261 75.5544 209.702C76.7766 208.923 77.5249 207.593 78.1639 206.942C78.8345 206.259 79.8785 204.583 80.6609 203.075C80.982 202.211 81.2308 201.56 81.6701 200.312C82.012 199.334 82.5954 197.659 83.2484 195.726" stroke="#44ADC2" stroke-width="6" stroke-linecap="round"/>
<path d="M83.3618 196.963C83.3618 196.689 83.4813 195.737 83.9398 194.371C84.683 192.156 85.6092 191.103 86.4442 189.85C86.9612 189.074 88.668 186.255 89.7472 184.295C90.5365 182.862 90.7266 181.437 90.8046 180.555C90.899 179.486 90.9246 176.619 90.5451 174.209C90.1838 171.914 87.4141 170.192 86.7883 169.435C86.093 168.595 85.4115 167.328 85.0124 166.045C84.6438 164.86 84.9289 163.359 85.4738 162.101C85.8882 161.144 86.7307 160.471 87.1696 159.076C87.4268 158.259 87.8388 156.817 88.0886 154.924C88.3384 153.031 88.3912 150.724 88.3377 148.238C88.2842 145.751 88.1227 143.155 88.0297 140.075C87.9368 136.994 87.9172 133.508 87.603 131.585C87.103 128.526 85.3626 128.601 85.2048 128.215C84.8192 127.269 85.9385 126.285 86.9743 124.349C87.2911 123.758 87.2596 123.27 87.2192 122.778C87.1425 121.845 86.2605 121.407 85.6152 120.902C84.906 120.348 83.6217 118.966 82.6268 118.084C81.857 117.403 80.3162 116.16 78.0797 112.759C77.2147 111.444 77.2383 107.126 77.0161 104.651C76.9024 103.386 76.306 102.419 75.3475 101.372C74.3996 100.336 72.7253 98.1273 71.6398 96.2682C70.9633 95.1095 71.1056 93.8977 71.3271 92.3144C71.6546 89.9737 72.7809 87.5725 73.6177 85.9427C74.4714 84.2801 77.0235 82.2569 80.4155 80.1872C81.1664 79.779 81.5316 79.5244 81.872 79.2571C82.0401 79.126 82.199 79.0043 82.3627 78.8789" stroke="#44ADC2" stroke-width="6" stroke-linecap="round"/>
<path d="M81.5716 79.774C81.5568 79.774 81.5847 79.5767 81.8295 78.8375C82.3139 77.3746 83.4756 74.4776 84.7808 70.7959C85.8258 67.8482 86.8943 66.3083 87.6294 65.2671C89.6588 62.3926 90.7773 61.6981 92.9072 60.3616C93.6342 59.9055 94.2453 59.4942 96.3125 58.173C98.0272 57.0771 101.073 55.086 103.374 53.4535C107.225 50.7221 108.779 49.1296 109.62 48.1096C111.496 45.8342 113.513 43.8407 114.686 42.6761C116.293 41.0815 117.096 39.8888 118.082 38.7548C118.53 38.24 118.792 37.4657 119.028 36.6509C119.218 35.9899 119.327 32.8281 119.419 28.4168C119.456 26.6438 119.031 26.2583 118.76 25.9036C118.264 25.2557 117.401 25.0718 116.604 24.8567C114.752 24.3565 114.674 21.5799 113.809 20.1514C112.837 18.5452 112.515 17.6915 112.242 16.9384C112.133 14.9525 112.072 11.9441 111.914 11.543C111.813 11.3196 111.67 11.0559 111.385 10.5525" stroke="#44ADC2" stroke-width="6" stroke-linecap="round"/>
<path d="M112.108 753.749V750.625H122.267V753.749H112.108ZM115.363 757.166V747.229H119.001V757.166H115.363Z" fill="#44ADC2"/>
<path d="M97.8071 759V743.681H101.889V749.678C102.245 749.275 102.729 748.955 103.34 748.72C103.958 748.478 104.684 748.357 105.517 748.357C107.029 748.357 108.262 748.841 109.216 749.809C110.176 750.776 110.657 752.033 110.657 753.578V753.951C110.657 755.503 110.176 756.766 109.216 757.74C108.255 758.714 106.975 759.201 105.376 759.201C104.61 759.201 103.894 759.077 103.229 758.829C102.564 758.573 102.104 758.241 101.848 757.831H101.818L101.758 759H97.8071ZM101.889 754.948C102.043 755.345 102.322 755.688 102.725 755.976C103.135 756.259 103.669 756.4 104.328 756.4C105.006 756.4 105.534 756.191 105.91 755.775C106.286 755.358 106.474 754.807 106.474 754.122V753.437C106.474 752.745 106.286 752.197 105.91 751.794C105.54 751.384 105.006 751.179 104.308 751.179C103.669 751.179 103.142 751.327 102.725 751.623C102.315 751.918 102.037 752.251 101.889 752.62V754.948Z" fill="#44ADC2"/>
<path d="M86.7311 759L91.75 747.995H85.1689V744.326H95.9324V746.977L90.8127 759H86.7311Z" fill="#44ADC2"/>
<path d="M92.2827 464.971V464.588C92.2827 462.928 92.884 461.628 94.0867 460.688C95.2961 459.747 96.8951 459.277 98.8839 459.277C100.812 459.277 102.284 459.663 103.298 460.436C104.313 461.208 104.857 462.159 104.931 463.288L104.951 463.55H100.9V463.358C100.893 462.955 100.718 462.633 100.375 462.391C100.04 462.142 99.539 462.018 98.8738 462.018C98.1012 462.018 97.5065 462.223 97.09 462.633C96.6801 463.043 96.4752 463.631 96.4752 464.397V465.162C96.4752 465.935 96.6768 466.53 97.0799 466.946C97.483 467.356 98.0776 467.561 98.8637 467.561C99.5826 467.561 100.1 467.427 100.416 467.158C100.738 466.889 100.9 466.567 100.9 466.19V466.029H104.941V466.211C104.934 467.333 104.403 468.293 103.348 469.093C102.3 469.892 100.812 470.292 98.8839 470.292C96.9019 470.292 95.3062 469.822 94.0968 468.881C92.8874 467.934 92.2827 466.631 92.2827 464.971Z" fill="#44ADC2"/>
<path d="M81.7311 470L86.75 458.995H80.1689V455.326H90.9324V457.977L85.8127 470H81.7311Z" fill="#44ADC2"/>
<path d="M91.2827 267.971V267.588C91.2827 265.928 91.884 264.628 93.0867 263.688C94.2961 262.747 95.8951 262.277 97.8839 262.277C99.8122 262.277 101.284 262.663 102.298 263.436C103.313 264.208 103.857 265.159 103.931 266.288L103.951 266.55H99.8995V266.358C99.8928 265.955 99.7181 265.633 99.3755 265.391C99.0395 265.142 98.539 265.018 97.8738 265.018C97.1012 265.018 96.5065 265.223 96.09 265.633C95.6801 266.043 95.4752 266.631 95.4752 267.397V268.162C95.4752 268.935 95.6768 269.53 96.0799 269.946C96.483 270.356 97.0776 270.561 97.8637 270.561C98.5826 270.561 99.1 270.427 99.4158 270.158C99.7383 269.889 99.8995 269.567 99.8995 269.19V269.029H103.941V269.211C103.934 270.333 103.403 271.293 102.348 272.093C101.3 272.892 99.8122 273.292 97.8839 273.292C95.9019 273.292 94.3062 272.822 93.0968 271.881C91.8874 270.934 91.2827 269.631 91.2827 267.971Z" fill="#44ADC2"/>
<path d="M93.6924 284V278.101H95.7299L95.7683 278.84H95.7902C96.0093 278.548 96.2941 278.335 96.6446 278.2C96.9988 278.061 97.3767 277.991 97.7784 277.991C98.2896 277.991 98.7314 278.083 99.1039 278.265C99.48 278.448 99.752 278.709 99.92 279.049H99.9255C100.174 278.709 100.519 278.448 100.961 278.265C101.406 278.083 101.861 277.991 102.325 277.991C103.051 277.991 103.646 278.189 104.11 278.583C104.574 278.977 104.804 279.657 104.8 280.621V284H102.681V280.577C102.677 280.193 102.58 279.91 102.39 279.728C102.204 279.545 101.95 279.454 101.629 279.454C101.337 279.454 101.076 279.536 100.846 279.7C100.619 279.861 100.44 280.073 100.309 280.336V284H98.1837V280.588C98.1801 280.193 98.0833 279.907 97.8934 279.728C97.7035 279.545 97.4425 279.454 97.1102 279.454C96.8217 279.454 96.5661 279.534 96.3434 279.695C96.1206 279.856 95.9435 280.069 95.8121 280.336V284H93.6924Z" fill="#44ADC2"/>
<path d="M86.4517 280.987V279.048C86.4517 278.059 86.7273 277.281 87.2787 276.715C87.8338 276.149 88.6261 275.866 89.6558 275.866C90.6856 275.866 91.4779 276.149 92.033 276.715C92.5916 277.278 92.871 278.055 92.871 279.048V280.987C92.871 281.981 92.5916 282.76 92.033 283.326C91.4743 283.889 90.6819 284.17 89.6558 284.17C88.6225 284.17 87.8301 283.889 87.2787 283.326C86.7273 282.76 86.4517 281.981 86.4517 280.987ZM88.7247 281.015C88.7247 281.519 88.7959 281.919 88.9383 282.214C89.0807 282.51 89.3217 282.658 89.6613 282.658C90.0009 282.658 90.2419 282.51 90.3843 282.214C90.5304 281.919 90.6034 281.519 90.6034 281.015V279.027C90.6034 278.526 90.5304 278.128 90.3843 277.833C90.2419 277.533 90.0009 277.383 89.6613 277.383C89.3217 277.383 89.0807 277.533 88.9383 277.833C88.7959 278.128 88.7247 278.526 88.7247 279.027V281.015Z" fill="#44ADC2"/>
<path d="M79.7036 281.705V281.617H81.9493V281.7C81.9493 282.014 82.0406 282.258 82.2231 282.434C82.4094 282.605 82.6778 282.691 83.0283 282.691C83.3606 282.691 83.6125 282.601 83.7842 282.423C83.9594 282.244 84.0471 281.968 84.0471 281.596C84.0471 281.26 83.9357 281.008 83.713 280.84C83.4939 280.672 83.0995 280.588 82.5299 280.588H81.7138V279.147H82.4751C82.99 279.147 83.3369 279.063 83.5158 278.895C83.6947 278.727 83.7842 278.494 83.7842 278.194C83.7842 277.909 83.713 277.696 83.5705 277.553C83.4281 277.407 83.2145 277.334 82.9297 277.334C82.6558 277.334 82.4495 277.404 82.3108 277.542C82.172 277.681 82.1026 277.902 82.1026 278.205V278.276H79.8734V278.211C79.8734 277.561 80.1509 277.007 80.7059 276.551C81.2646 276.091 82.0168 275.861 82.9626 275.861C83.9813 275.861 84.7482 276.067 85.263 276.48C85.7815 276.892 86.0408 277.404 86.0408 278.013C86.0408 278.404 85.9294 278.755 85.7067 279.065C85.4839 279.375 85.1334 279.622 84.655 279.804V279.826C85.1736 279.943 85.5789 280.155 85.871 280.462C86.1668 280.765 86.3146 281.157 86.3146 281.639C86.3146 282.402 86.0152 283.014 85.4164 283.474C84.8175 283.934 84.0179 284.164 83.0173 284.164C82.0168 284.164 81.2245 283.936 80.6402 283.48C80.056 283.02 79.7438 282.428 79.7036 281.705Z" fill="#44ADC2"/>
<path d="M94.7144 485V479.101H96.7519L96.7902 479.84H96.8121C97.0312 479.548 97.316 479.335 97.6666 479.2C98.0208 479.061 98.3987 478.991 98.8004 478.991C99.3116 478.991 99.7534 479.083 100.126 479.265C100.502 479.448 100.774 479.709 100.942 480.049H100.947C101.196 479.709 101.541 479.448 101.983 479.265C102.428 479.083 102.883 478.991 103.346 478.991C104.073 478.991 104.668 479.189 105.132 479.583C105.596 479.977 105.826 480.657 105.822 481.621V485H103.703V481.577C103.699 481.193 103.602 480.91 103.412 480.728C103.226 480.545 102.972 480.454 102.651 480.454C102.359 480.454 102.098 480.536 101.868 480.7C101.641 480.861 101.462 481.073 101.331 481.336V485H99.2057V481.588C99.202 481.193 99.1053 480.907 98.9154 480.728C98.7255 480.545 98.4644 480.454 98.1322 480.454C97.8437 480.454 97.5881 480.534 97.3653 480.695C97.1426 480.856 96.9655 481.069 96.834 481.336V485H94.7144Z" fill="#44ADC2"/>
<path d="M87.4736 481.987V480.048C87.4736 479.059 87.7493 478.281 88.3007 477.715C88.8557 477.149 89.6481 476.866 90.6778 476.866C91.7075 476.866 92.4999 477.149 93.0549 477.715C93.6136 478.278 93.893 479.055 93.893 480.048V481.987C93.893 482.981 93.6136 483.76 93.0549 484.326C92.4963 484.889 91.7039 485.17 90.6778 485.17C89.6444 485.17 88.8521 484.889 88.3007 484.326C87.7493 483.76 87.4736 482.981 87.4736 481.987ZM89.7467 482.015C89.7467 482.519 89.8179 482.919 89.9603 483.214C90.1027 483.51 90.3437 483.658 90.6833 483.658C91.0229 483.658 91.2639 483.51 91.4063 483.214C91.5524 482.919 91.6254 482.519 91.6254 482.015V480.027C91.6254 479.526 91.5524 479.128 91.4063 478.833C91.2639 478.533 91.0229 478.383 90.6833 478.383C90.3437 478.383 90.1027 478.533 89.9603 478.833C89.8179 479.128 89.7467 479.526 89.7467 480.027V482.015Z" fill="#44ADC2"/>
<path d="M84.324 485V482.634L84.3294 482.355V479.736H84.2637L82.6644 481.823L84.669 481.818L85.0798 481.779H87.3912V483.423H80.709V482.152L84.5923 477.025H86.5696V485H84.324Z" fill="#44ADC2"/>
<path d="M112.704 772V766.101H114.741L114.779 766.84H114.801C115.02 766.548 115.305 766.335 115.656 766.2C116.01 766.061 116.388 765.991 116.79 765.991C117.301 765.991 117.743 766.083 118.115 766.265C118.491 766.448 118.763 766.709 118.931 767.049H118.937C119.185 766.709 119.53 766.448 119.972 766.265C120.417 766.083 120.872 765.991 121.336 765.991C122.062 765.991 122.658 766.189 123.121 766.583C123.585 766.977 123.815 767.657 123.811 768.621V772H121.692V768.577C121.688 768.193 121.591 767.91 121.401 767.728C121.215 767.545 120.961 767.454 120.64 767.454C120.348 767.454 120.087 767.536 119.857 767.7C119.63 767.861 119.452 768.073 119.32 768.336V772H117.195V768.588C117.191 768.193 117.095 767.907 116.905 767.728C116.715 767.545 116.454 767.454 116.121 767.454C115.833 767.454 115.577 767.534 115.355 767.695C115.132 767.856 114.955 768.069 114.823 768.336V772H112.704Z" fill="#44ADC2"/>
<path d="M105.364 769.782V769.683H107.62V769.776C107.62 770.068 107.703 770.295 107.867 770.455C108.035 770.612 108.294 770.691 108.645 770.691C108.988 770.691 109.243 770.587 109.411 770.379C109.583 770.167 109.669 769.857 109.669 769.448C109.669 769.031 109.57 768.725 109.373 768.527C109.18 768.33 108.897 768.232 108.524 768.232C108.25 768.232 108.029 768.297 107.861 768.429C107.693 768.56 107.578 768.688 107.516 768.812L105.577 768.166L105.999 764.025H111.531V765.63L107.878 765.625L107.708 767.164C107.843 767.039 108.028 766.943 108.261 766.873C108.495 766.8 108.796 766.764 109.165 766.764C109.968 766.764 110.627 766.996 111.142 767.459C111.661 767.923 111.92 768.571 111.92 769.404C111.92 770.247 111.622 770.919 111.027 771.419C110.436 771.916 109.641 772.164 108.645 772.164C107.662 772.164 106.87 771.94 106.268 771.491C105.665 771.038 105.364 770.468 105.364 769.782Z" fill="#44ADC2"/>
<path d="M98.8463 772V770.839L101.99 767.744C102.242 767.481 102.461 767.207 102.648 766.923C102.837 766.638 102.932 766.377 102.932 766.139C102.932 765.887 102.872 765.698 102.752 765.57C102.631 765.438 102.385 765.373 102.012 765.373C101.621 765.373 101.36 765.466 101.229 765.652C101.097 765.834 101.026 766.107 101.015 766.468V766.589H98.7642V766.468C98.7642 765.69 99.0581 765.062 99.646 764.584C100.238 764.102 101.028 763.861 102.018 763.861C103.044 763.861 103.827 764.065 104.367 764.474C104.908 764.88 105.178 765.402 105.178 766.041C105.178 766.592 105.061 767.065 104.827 767.459C104.597 767.854 104.256 768.27 103.803 768.708L101.892 770.466H105.304V772H98.8463Z" fill="#44ADC2"/>
<path d="M80.7311 273L85.75 261.995H79.1689V258.326H89.9324V260.977L84.8127 273H80.7311Z" fill="#44ADC2"/>
<path d="M104.807 105V89.6812H108.889V95.6776C109.245 95.2745 109.729 94.9554 110.34 94.7202C110.958 94.4783 111.684 94.3574 112.517 94.3574C114.029 94.3574 115.262 94.8412 116.216 95.8087C117.176 96.7762 117.657 98.0326 117.657 99.5779V99.9508C117.657 101.503 117.176 102.766 116.216 103.74C115.255 104.714 113.975 105.201 112.376 105.201C111.61 105.201 110.894 105.077 110.229 104.829C109.564 104.573 109.104 104.241 108.848 103.831H108.818L108.758 105H104.807ZM108.889 100.948C109.043 101.345 109.322 101.688 109.725 101.976C110.135 102.259 110.669 102.4 111.328 102.4C112.006 102.4 112.534 102.191 112.91 101.775C113.286 101.358 113.474 100.807 113.474 100.122V99.4368C113.474 98.7447 113.286 98.1972 112.91 97.794C112.54 97.3842 112.006 97.1793 111.308 97.1793C110.669 97.1793 110.142 97.3271 109.725 97.6227C109.315 97.9183 109.037 98.2509 108.889 98.6204V100.948Z" fill="#44ADC2"/>
<path d="M107.692 118V112.101H109.73L109.768 112.84H109.79C110.009 112.548 110.294 112.335 110.645 112.2C110.999 112.061 111.377 111.991 111.778 111.991C112.29 111.991 112.731 112.083 113.104 112.265C113.48 112.448 113.752 112.709 113.92 113.049H113.925C114.174 112.709 114.519 112.448 114.961 112.265C115.406 112.083 115.861 111.991 116.325 111.991C117.051 111.991 117.646 112.189 118.11 112.583C118.574 112.977 118.804 113.657 118.8 114.621V118H116.681V114.577C116.677 114.193 116.58 113.91 116.39 113.728C116.204 113.545 115.95 113.454 115.629 113.454C115.337 113.454 115.076 113.536 114.846 113.7C114.619 113.861 114.44 114.073 114.309 114.336V118H112.184V114.588C112.18 114.193 112.083 113.907 111.893 113.728C111.704 113.545 111.442 113.454 111.11 113.454C110.822 113.454 110.566 113.534 110.343 113.695C110.121 113.856 109.944 114.069 109.812 114.336V118H107.692Z" fill="#44ADC2"/>
<path d="M100.452 114.987V113.048C100.452 112.059 100.727 111.281 101.279 110.715C101.834 110.149 102.626 109.866 103.656 109.866C104.686 109.866 105.478 110.149 106.033 110.715C106.592 111.278 106.871 112.055 106.871 113.048V114.987C106.871 115.981 106.592 116.76 106.033 117.326C105.474 117.889 104.682 118.17 103.656 118.17C102.622 118.17 101.83 117.889 101.279 117.326C100.727 116.76 100.452 115.981 100.452 114.987ZM102.725 115.015C102.725 115.519 102.796 115.919 102.938 116.214C103.081 116.51 103.322 116.658 103.661 116.658C104.001 116.658 104.242 116.51 104.384 116.214C104.53 115.919 104.603 115.519 104.603 115.015V113.027C104.603 112.526 104.53 112.128 104.384 111.833C104.242 111.533 104.001 111.383 103.661 111.383C103.322 111.383 103.081 111.533 102.938 111.833C102.796 112.128 102.725 112.526 102.725 113.027V115.015Z" fill="#44ADC2"/>
<path d="M93.7036 115.705V115.617H95.9493V115.7C95.9493 116.014 96.0406 116.258 96.2231 116.434C96.4094 116.605 96.6778 116.691 97.0283 116.691C97.3606 116.691 97.6125 116.601 97.7842 116.423C97.9594 116.244 98.0471 115.968 98.0471 115.596C98.0471 115.26 97.9357 115.008 97.713 114.84C97.4939 114.672 97.0995 114.588 96.5299 114.588H95.7138V113.147H96.4751C96.99 113.147 97.3369 113.063 97.5158 112.895C97.6947 112.727 97.7842 112.494 97.7842 112.194C97.7842 111.909 97.713 111.696 97.5705 111.553C97.4281 111.407 97.2145 111.334 96.9297 111.334C96.6558 111.334 96.4495 111.404 96.3108 111.542C96.172 111.681 96.1026 111.902 96.1026 112.205V112.276H93.8734V112.211C93.8734 111.561 94.1509 111.007 94.7059 110.551C95.2646 110.091 96.0168 109.861 96.9626 109.861C97.9813 109.861 98.7482 110.067 99.263 110.48C99.7815 110.892 100.041 111.404 100.041 112.013C100.041 112.404 99.9294 112.755 99.7067 113.065C99.4839 113.375 99.1334 113.622 98.655 113.804V113.826C99.1736 113.943 99.5789 114.155 99.871 114.462C100.167 114.765 100.315 115.157 100.315 115.639C100.315 116.402 100.015 117.014 99.4164 117.474C98.8175 117.934 98.0179 118.164 97.0173 118.164C96.0168 118.164 95.2245 117.936 94.6402 117.48C94.056 117.02 93.7438 116.428 93.7036 115.705Z" fill="#44ADC2"/>
<path d="M93.7311 105L98.75 93.9946H92.1689V90.3262H102.932V92.9767L97.8127 105H93.7311Z" fill="#44ADC2"/>
</svg>
